<?xml version="1.0" standalone="no"?>
<!DOCTYPE svg PUBLIC "-//W3C//DTD SVG 20010904//EN"
 "http://www.w3.org/TR/2001/REC-SVG-20010904/DTD/svg10.dtd">
<svg version="1.0" xmlns="http://www.w3.org/2000/svg"
 width="949.000000pt" height="949.000000pt" viewBox="0 0 949.000000 949.000000"
 preserveAspectRatio="xMidYMid meet">
<metadata>
Created by potrace 1.14, written by Peter Selinger 2001-2017
</metadata>
<g transform="translate(0.000000,949.000000) scale(0.100000,-0.100000)"
fill="#000000" stroke="none">
<path d="M4744 9218 c3 -10 1 -18 -4 -18 -6 0 -10 5 -10 11 0 8 -4 8 -15 -1
-8 -7 -19 -8 -27 -3 -22 14 -126 10 -121 -4 3 -7 -2 -13 -12 -13 -10 0 -14 5
-9 13 4 6 -2 4 -13 -6 -16 -14 -22 -15 -26 -5 -3 10 -10 8 -27 -7 -13 -11 -20
-15 -17 -8 4 6 3 14 -3 18 -5 3 -10 -3 -10 -14 0 -12 -5 -21 -11 -21 -5 0 -8
4 -5 9 3 5 -1 11 -9 14 -10 4 -12 1 -8 -10 4 -11 2 -14 -5 -9 -7 4 -12 3 -12
-2 0 -10 -30 -9 -48 1 -8 6 -10 3 -5 -10 3 -10 3 -15 -2 -11 -4 4 -14 0 -22
-10 -14 -16 -14 -16 -9 2 5 15 4 17 -7 8 -8 -7 -18 -8 -22 -4 -5 4 -5 1 0 -7
6 -11 3 -13 -14 -8 -18 4 -20 3 -11 -8 9 -11 4 -13 -24 -11 -20 2 -33 0 -31
-5 3 -4 -1 -14 -9 -22 -8 -8 -14 -16 -13 -18 1 -3 -4 2 -10 10 -11 12 -14 10
-22 -10 -5 -13 -6 -28 -3 -33 3 -5 0 -6 -6 -2 -6 4 -8 14 -5 24 4 9 -10 0 -30
-21 -23 -23 -42 -35 -50 -31 -8 6 -8 3 1 -8 10 -13 10 -18 1 -24 -8 -5 -10 -3
-5 7 4 8 0 5 -9 -6 -9 -11 -19 -19 -23 -17 -3 2 -8 -2 -11 -9 -2 -7 1 -9 9 -4
8 5 11 4 6 -3 -4 -6 -13 -9 -21 -5 -8 3 -15 0 -15 -7 0 -7 -10 -22 -23 -34
-13 -12 -26 -30 -30 -40 -4 -10 -13 -16 -21 -13 -19 8 -28 -3 -15 -19 8 -9 5
-11 -13 -8 -13 2 -17 2 -10 -2 17 -8 15 -27 -2 -21 -9 4 -13 -2 -12 -16 1 -15
-5 -22 -16 -21 -10 1 -14 -4 -11 -12 3 -8 10 -14 17 -15 6 0 0 -5 -13 -10 -19
-8 -21 -12 -11 -24 10 -12 9 -15 -6 -15 -17 0 -17 -1 2 -16 10 -8 13 -13 7 -9
-7 3 -13 3 -14 -2 0 -4 -2 -16 -4 -26 -2 -9 1 -14 7 -11 6 4 6 -2 -1 -14 -14
-27 -14 -35 2 -26 6 4 5 -1 -4 -12 -9 -10 -14 -25 -12 -32 3 -7 1 -20 -3 -30
-11 -25 -11 -36 1 -44 6 -5 5 -8 -3 -8 -8 0 -10 -5 -5 -12 11 -19 13 -39 2
-32 -5 3 -6 10 -3 16 4 6 2 8 -3 5 -7 -5 -8 -20 -3 -42 4 -19 4 -35 0 -35 -4
0 -5 -27 -3 -60 3 -44 1 -60 -8 -60 -8 0 -5 -7 7 -16 10 -8 13 -13 7 -9 -7 3
-13 2 -13 -4 0 -5 6 -12 13 -14 9 -4 9 -6 0 -6 -7 -1 -10 -8 -7 -16 4 -8 11
-12 18 -8 6 4 4 -2 -4 -12 -11 -14 -12 -19 -2 -22 6 -3 12 -11 12 -19 0 -8 6
-14 13 -14 8 0 8 -3 2 -8 -6 -4 -11 -16 -11 -27 0 -11 5 -24 11 -28 7 -6 6
-10 -2 -14 -9 -3 -10 -10 -3 -22 5 -10 6 -21 3 -25 -11 -11 -11 -56 -1 -56 5
0 6 -6 1 -12 -11 -18 -10 -62 2 -70 6 -5 4 -8 -4 -8 -11 0 -10 -4 5 -16 10 -8
13 -12 5 -8 -11 5 -13 3 -8 -9 3 -10 2 -17 -3 -17 -5 0 -7 -9 -5 -20 2 -12 0
-31 -6 -43 -9 -21 -9 -21 -5 3 5 24 4 24 -9 6 -8 -10 -11 -24 -8 -30 4 -6 0
-6 -9 1 -15 13 -28 8 -28 -11 0 -6 4 -5 9 3 7 10 9 7 8 -12 -2 -18 -5 -23 -14
-15 -9 7 -10 3 -3 -21 4 -17 12 -36 16 -43 6 -9 3 -9 -9 1 -15 12 -17 12 -11
-3 3 -9 10 -16 15 -16 5 0 9 -5 9 -11 0 -5 -4 -8 -8 -5 -5 3 -9 -1 -9 -9 0 -8
4 -12 9 -9 4 3 8 -4 8 -15 0 -12 4 -21 10 -21 5 0 6 -8 3 -17 -6 -16 -5 -16
10 -5 14 12 16 11 12 -7 -2 -14 1 -21 11 -21 8 0 14 -7 14 -16 0 -9 5 -12 13
-8 7 5 6 0 -3 -11 -9 -11 -10 -16 -2 -11 7 4 12 2 12 -4 0 -6 5 -8 12 -4 7 5
8 3 2 -7 -5 -8 -9 -18 -9 -24 -2 -16 16 -35 27 -29 5 3 4 -4 -4 -15 -11 -18
-11 -23 2 -31 13 -9 13 -10 0 -10 -9 0 -11 -3 -5 -8 12 -8 17 -27 18 -67 1
-16 9 -37 17 -45 14 -13 14 -14 0 -5 -13 9 -13 8 -2 -7 8 -10 10 -23 6 -30 -5
-8 -1 -8 11 2 16 14 17 13 11 -8 -6 -17 -3 -22 11 -22 14 0 15 -2 5 -9 -16
-10 -15 -21 4 -42 8 -9 11 -19 7 -22 -3 -4 0 -7 8 -7 11 0 11 -2 -1 -10 -13
-8 -13 -10 1 -10 9 0 20 -7 23 -16 3 -8 2 -12 -4 -9 -6 3 -10 1 -10 -4 0 -6 8
-11 18 -11 14 0 15 -2 2 -10 -8 -5 -10 -10 -4 -10 6 0 16 -12 23 -27 11 -24
10 -25 -4 -13 -13 11 -14 10 -9 -5 6 -14 4 -16 -6 -10 -9 5 -11 4 -6 -4 4 -6
11 -9 16 -6 5 3 11 1 15 -5 3 -5 -1 -10 -9 -10 -10 0 -13 -6 -9 -17 5 -12 2
-15 -10 -10 -22 8 -21 3 1 -19 16 -17 16 -17 0 -11 -20 7 -35 -9 -16 -16 7 -3
5 -6 -6 -6 -11 -1 -16 -4 -13 -8 4 -3 1 -13 -6 -21 -8 -11 -8 -14 0 -9 16 10
10 -20 -7 -36 -12 -10 -12 -9 -1 6 8 9 9 17 3 17 -16 0 -22 -26 -9 -39 9 -10
9 -12 -3 -9 -8 2 -18 8 -22 13 -5 6 -8 3 -8 -7 0 -22 -18 -32 -53 -30 -16 1
-26 -1 -23 -6 2 -4 -4 -8 -14 -8 -16 0 -17 3 -7 16 10 13 10 13 -5 2 -10 -8
-23 -10 -30 -6 -9 6 -9 3 1 -9 13 -16 12 -17 -12 -8 -19 7 -26 7 -24 0 2 -10
-7 -13 -64 -22 -11 -2 -24 -8 -27 -13 -11 -15 -34 -16 -44 -2 -7 9 -8 6 -5
-10 3 -13 3 -21 0 -18 -3 3 -15 1 -26 -5 -14 -8 -18 -8 -13 0 10 15 -7 14 -22
-1 -9 -9 -12 -9 -12 1 0 7 -5 9 -10 6 -6 -4 -7 -12 -3 -18 4 -7 0 -7 -10 1
-14 12 -16 11 -12 -7 2 -14 -1 -18 -11 -14 -7 3 -11 10 -7 17 4 7 1 7 -9 -1
-8 -7 -19 -9 -23 -5 -5 4 -5 1 -1 -5 4 -7 2 -13 -4 -13 -6 0 -9 -4 -5 -9 3 -6
-5 -8 -19 -5 -14 2 -28 -1 -32 -7 -5 -8 -3 -9 6 -4 9 5 11 4 6 -4 -5 -8 -12
-9 -19 -2 -8 6 -19 5 -31 -5 -11 -8 -16 -14 -10 -14 5 -1 -4 -7 -21 -15 -26
-13 -26 -14 -5 -9 19 4 22 3 10 -5 -8 -6 -23 -11 -34 -11 -12 0 -16 -5 -12
-15 3 -8 2 -14 -2 -14 -24 4 -42 -2 -36 -13 5 -7 0 -9 -14 -6 -13 4 -28 -2
-41 -13 -22 -21 -67 -27 -55 -7 5 7 3 8 -5 4 -7 -5 -10 -15 -6 -23 4 -13 3
-14 -10 -3 -10 8 -15 9 -15 1 0 -6 -5 -11 -11 -11 -5 0 -7 6 -3 13 6 9 5 9 -8
0 -8 -7 -18 -10 -22 -6 -4 4 -4 -1 0 -11 6 -15 4 -17 -7 -10 -21 12 -49 15
-49 5 0 -6 -9 -8 -20 -6 -13 2 -20 -2 -20 -11 0 -9 -7 -14 -17 -12 -12 2 -18
-3 -17 -15 2 -14 -1 -15 -13 -6 -11 10 -14 10 -11 -2 2 -8 -3 -13 -11 -11 -12
3 -12 0 -1 -13 11 -13 10 -15 -4 -9 -10 4 -18 0 -22 -10 -3 -9 -11 -13 -17 -9
-6 4 -8 0 -4 -11 5 -14 3 -15 -13 -6 -13 7 -21 7 -26 -2 -5 -7 -2 -9 7 -4 8 4
5 0 -5 -8 -19 -15 -39 -21 -60 -17 -5 1 -4 -5 3 -13 10 -12 9 -14 -8 -9 -12 3
-21 1 -21 -4 0 -15 -48 -33 -67 -26 -11 4 -14 3 -9 -5 4 -8 0 -12 -11 -12 -15
0 -16 -2 -3 -10 12 -8 10 -10 -8 -10 -16 0 -21 4 -16 13 6 9 5 9 -7 0 -8 -6
-17 -11 -21 -10 -3 1 -10 -2 -15 -7 -5 -5 -2 -6 6 -1 10 6 12 4 7 -4 -6 -9
-11 -9 -22 0 -11 9 -14 7 -14 -11 0 -17 -3 -20 -13 -12 -10 9 -13 5 -11 -19 2
-26 0 -28 -14 -17 -13 11 -14 11 -8 0 4 -7 2 -20 -6 -29 -16 -20 -16 -16 1
-37 12 -14 12 -16 -3 -10 -12 5 -15 2 -9 -12 5 -13 3 -15 -7 -9 -9 5 -11 4 -6
-3 4 -7 -5 -22 -20 -35 -20 -17 -23 -24 -11 -24 9 0 13 5 10 10 -4 6 -1 7 7 2
10 -6 7 -12 -10 -25 -15 -11 -20 -22 -15 -30 6 -9 4 -11 -5 -5 -10 6 -12 4 -6
-10 6 -16 4 -16 -11 -4 -9 8 -14 9 -10 2 4 -6 3 -14 -2 -17 -5 -3 -7 -16 -4
-29 4 -18 3 -19 -6 -7 -10 13 -11 13 -12 0 -1 -8 -1 -18 0 -22 0 -5 -6 -8 -14
-8 -8 0 -15 -5 -15 -11 0 -5 5 -7 11 -3 6 3 3 -5 -6 -19 -9 -15 -14 -31 -10
-36 3 -6 0 -8 -8 -5 -10 4 -13 -3 -12 -25 1 -25 -1 -29 -12 -19 -8 6 -13 7
-12 2 4 -23 -2 -35 -13 -28 -8 5 -8 2 1 -10 12 -15 12 -17 0 -14 -8 2 -13 -3
-12 -9 2 -7 -5 -13 -15 -14 -10 0 -12 -3 -4 -6 6 -2 12 -9 12 -15 0 -6 -8 -7
-17 -4 -10 4 -14 4 -10 0 4 -4 1 -14 -6 -22 -10 -13 -9 -14 3 -8 8 4 4 -2 -10
-14 -19 -17 -21 -20 -6 -16 17 6 17 5 5 -11 -8 -10 -19 -21 -26 -26 -7 -4 -10
-14 -7 -22 4 -8 1 -15 -6 -15 -6 0 -8 -4 -5 -10 3 -5 1 -10 -5 -10 -6 0 -8 -5
-5 -10 3 -6 -1 -13 -9 -16 -9 -3 -16 -10 -16 -16 0 -5 6 -6 12 -2 7 5 2 -5
-10 -21 -15 -19 -19 -31 -11 -35 6 -4 2 -10 -12 -13 -17 -5 -20 -9 -11 -19 7
-9 8 -19 2 -28 -6 -8 -10 -11 -10 -6 0 6 -6 1 -14 -10 -11 -15 -12 -22 -3 -33
9 -11 9 -13 1 -8 -13 8 -44 -33 -44 -58 0 -9 -4 -14 -9 -10 -5 3 -13 0 -17 -6
-4 -8 -3 -9 4 -5 7 4 12 2 12 -3 0 -6 -4 -11 -10 -11 -5 0 -9 -6 -7 -12 1 -7
-4 -12 -12 -10 -12 3 -12 1 0 -14 9 -12 9 -15 2 -10 -13 7 -17 -3 -13 -38 1
-12 -2 -16 -12 -11 -10 6 -11 5 0 -6 14 -16 16 -33 2 -24 -7 4 -7 -2 0 -19 6
-16 6 -27 0 -31 -6 -4 -10 -1 -10 6 0 7 -3 9 -6 6 -4 -4 -1 -14 7 -24 9 -11
10 -14 2 -9 -9 5 -13 0 -13 -14 0 -14 -4 -19 -12 -14 -8 5 -7 0 2 -11 9 -11
10 -16 3 -11 -13 7 -15 0 -16 -51 -1 -12 -3 -21 -6 -21 -22 2 -30 -4 -24 -19
5 -12 3 -14 -7 -8 -8 5 -11 4 -6 -3 3 -6 -4 -18 -16 -28 -19 -14 -20 -15 -4
-10 19 7 19 6 2 -13 -10 -11 -16 -27 -13 -35 4 -10 1 -13 -9 -9 -7 3 -14 0
-14 -6 0 -6 6 -11 13 -11 9 0 9 -2 0 -8 -11 -7 -18 -36 -22 -85 -1 -5 -5 -6
-10 -3 -5 3 -11 -3 -14 -14 -3 -11 -1 -23 4 -26 14 -8 -1 -26 -17 -20 -10 4
-11 0 -4 -20 7 -18 7 -23 -2 -18 -7 5 -9 0 -6 -14 4 -12 1 -25 -4 -29 -7 -4
-8 -1 -3 7 5 9 4 11 -4 6 -9 -6 -9 -11 1 -24 11 -13 10 -15 -5 -9 -9 3 -17 2
-17 -3 0 -5 -7 -7 -15 -4 -18 7 -20 -12 -2 -20 8 -3 7 -5 -3 -4 -24 3 -61 -13
-54 -23 3 -5 10 -7 15 -4 5 4 9 4 9 0 0 -3 -10 -10 -22 -15 -18 -7 -19 -9 -5
-9 14 -1 16 -5 7 -20 -7 -14 -7 -22 2 -27 7 -5 8 -3 3 6 -6 9 -4 11 5 5 10 -6
10 -11 -3 -20 -18 -13 -24 -31 -8 -20 5 3 12 1 16 -5 3 -5 0 -10 -7 -10 -9 0
-9 -3 2 -10 10 -6 11 -10 3 -10 -7 0 -13 -7 -13 -16 0 -9 5 -12 13 -8 9 5 9 4
0 -6 -6 -7 -9 -19 -6 -28 5 -11 2 -13 -8 -8 -11 6 -10 4 1 -6 17 -15 26 -43
10 -33 -5 3 -10 2 -10 -4 0 -5 4 -12 10 -16 6 -4 5 -15 -2 -30 -6 -13 -15 -22
-20 -18 -6 3 -3 -6 6 -20 15 -21 15 -25 2 -30 -9 -4 -13 -15 -11 -27 2 -11 0
-18 -6 -15 -5 4 -9 1 -9 -5 0 -6 -4 -9 -9 -6 -5 4 -7 -3 -4 -14 3 -12 0 -20
-7 -20 -10 0 -10 -3 0 -16 11 -12 10 -18 -6 -32 -10 -9 -13 -10 -6 -2 15 18
17 39 1 23 -15 -15 -19 -63 -5 -63 6 0 4 -5 -4 -10 -8 -5 -11 -10 -6 -10 6 0
1 -7 -10 -16 -10 -8 -14 -13 -7 -10 6 4 14 2 18 -4 6 -9 -8 -14 -28 -11 -5 1
-6 -3 -2 -9 3 -6 12 -7 18 -3 8 5 8 2 0 -9 -7 -8 -10 -18 -6 -21 6 -7 -13 -11
-31 -8 -5 1 -4 -4 3 -12 9 -12 8 -16 -5 -21 -8 -3 -14 -12 -11 -19 2 -6 -3
-18 -12 -25 -13 -11 -13 -12 -1 -6 12 6 13 4 3 -7 -7 -7 -13 -22 -13 -34 0
-17 -2 -18 -11 -5 -8 12 -9 10 -4 -7 3 -12 1 -33 -6 -45 -12 -22 -11 -22 7 -8
17 14 18 14 6 -2 -8 -10 -10 -23 -6 -30 6 -9 3 -9 -10 1 -15 12 -17 12 -14 0
2 -8 8 -17 13 -21 6 -5 4 -8 -5 -8 -12 0 -15 -9 -12 -41 4 -33 2 -40 -9 -34
-11 6 -12 5 -2 -6 7 -7 13 -19 13 -27 0 -8 -5 -10 -13 -6 -8 5 -8 2 2 -9 7 -9
10 -17 6 -17 -4 0 -1 -8 6 -17 10 -11 10 -14 1 -9 -7 4 -12 2 -12 -4 0 -6 -5
-8 -12 -4 -7 4 -8 3 -4 -4 4 -7 15 -12 24 -12 15 -1 15 -2 -1 -11 -12 -7 -15
-15 -9 -22 5 -7 6 -21 1 -32 -4 -11 -8 -14 -8 -6 -1 8 -3 12 -6 9 -8 -8 6 -39
14 -33 4 2 8 -2 8 -10 0 -8 -4 -12 -9 -9 -4 3 -7 -22 -6 -55 2 -34 1 -61 -2
-61 -3 0 -5 -19 -5 -43 1 -23 -2 -46 -6 -52 -11 -18 -17 -55 -8 -49 5 3 9 0 9
-5 0 -6 -5 -11 -12 -11 -6 0 -3 -7 8 -15 12 -9 13 -13 4 -10 -11 4 -16 -1 -17
-15 -1 -12 3 -18 9 -14 7 4 7 0 0 -13 -6 -11 -9 -28 -7 -39 2 -10 4 -25 4 -32
1 -8 6 -10 14 -6 8 5 8 2 -2 -9 -9 -11 -10 -17 -2 -17 6 0 11 -5 11 -11 0 -5
-6 -7 -12 -3 -7 4 -6 -1 3 -12 9 -10 15 -27 14 -37 -2 -9 1 -15 6 -11 5 3 6
11 2 17 -4 7 1 6 10 -2 13 -10 15 -17 6 -27 -9 -11 -7 -14 7 -14 16 0 17 -2 4
-10 -13 -8 -12 -10 3 -10 11 0 15 -4 11 -12 -5 -8 -2 -9 9 -5 10 4 16 2 14 -6
-1 -7 4 -11 11 -9 8 1 11 -2 7 -8 -7 -11 17 -40 34 -40 5 0 13 -4 16 -10 4 -6
-1 -7 -12 -3 -15 6 -16 5 -3 -9 10 -11 19 -13 27 -6 8 6 10 4 6 -10 -2 -11 1
-23 8 -27 8 -6 10 -4 4 6 -7 11 -6 12 7 2 8 -7 18 -10 22 -6 4 4 4 -1 0 -11
-5 -13 -4 -17 4 -12 8 5 10 1 5 -10 -5 -12 -3 -15 6 -9 10 5 11 2 6 -14 -3
-12 -3 -21 2 -20 19 3 34 -2 28 -10 -3 -5 0 -13 6 -17 8 -4 9 -3 5 4 -4 7 -2
12 3 12 6 0 11 -7 11 -16 0 -9 5 -12 12 -8 8 5 9 2 5 -10 -4 -10 -3 -15 3 -11
10 6 33 -29 24 -38 -3 -3 2 -4 13 -3 21 4 45 -12 37 -25 -3 -5 3 -6 12 -2 12
4 15 3 10 -5 -4 -7 -1 -12 8 -12 14 0 20 -11 18 -31 -1 -3 6 -6 13 -6 11 0 12
3 3 14 -6 8 8 2 31 -14 23 -15 39 -33 37 -39 -3 -8 1 -11 9 -7 8 3 12 10 8 16
-3 6 -1 7 5 3 7 -4 12 -14 12 -22 0 -8 6 -14 13 -14 8 0 7 -4 -3 -10 -10 -7
-11 -10 -2 -11 27 -3 31 -4 39 -13 4 -5 3 -6 -3 -3 -7 4 -19 -5 -29 -19 -10
-15 -22 -23 -31 -20 -8 3 -21 9 -29 12 -8 3 -15 1 -15 -6 0 -6 5 -8 12 -4 7 4
8 3 4 -5 -6 -9 -11 -9 -22 0 -16 13 -19 -1 -4 -19 7 -9 7 -9 -2 -2 -17 14 -31
12 -22 -2 4 -7 -3 -4 -15 6 -17 16 -21 17 -16 4 5 -13 2 -15 -14 -11 -14 3
-23 0 -27 -11 -3 -9 -10 -13 -15 -10 -5 3 -6 11 -2 17 4 7 0 6 -10 -2 -19 -15
-23 -26 -5 -15 6 4 8 3 5 -4 -4 -5 -17 -8 -30 -5 -16 3 -18 2 -9 -5 11 -7 10
-10 -3 -16 -23 -8 -27 -8 -20 4 3 6 -1 7 -9 4 -9 -3 -16 -10 -16 -15 0 -5 -3
-8 -8 -8 -19 3 -32 -2 -30 -12 2 -6 -3 -14 -11 -17 -9 -3 -11 0 -6 8 6 9 4 11
-4 6 -7 -5 -10 -15 -7 -23 3 -8 2 -11 -3 -8 -6 3 -14 -3 -20 -12 -6 -10 -11
-13 -11 -7 0 5 6 16 12 23 11 11 9 11 -10 2 -12 -7 -20 -16 -17 -22 4 -5 1 -9
-5 -9 -6 0 -8 -5 -4 -12 4 -7 3 -8 -5 -4 -6 4 -8 12 -5 18 5 7 2 8 -5 4 -7 -5
-10 -14 -7 -22 4 -11 2 -12 -14 -4 -16 9 -18 7 -15 -11 3 -17 2 -19 -10 -9
-11 9 -17 6 -29 -17 -9 -16 -16 -22 -16 -13 -1 9 -5 5 -11 -8 -5 -13 -13 -20
-19 -17 -5 3 -10 -1 -10 -9 0 -9 -6 -16 -14 -16 -7 0 -20 -8 -27 -17 -13 -17
-13 -17 6 -3 19 14 19 14 6 -3 -11 -14 -16 -15 -29 -5 -13 11 -15 10 -9 -4 3
-10 2 -18 -4 -18 -6 0 -7 -5 -3 -12 5 -7 2 -9 -9 -5 -20 7 -81 -58 -70 -76 4
-7 0 -7 -10 1 -14 12 -16 11 -12 -7 2 -11 -1 -24 -7 -27 -7 -5 -8 -2 -3 7 8
12 6 12 -9 0 -13 -11 -14 -16 -4 -22 10 -7 9 -9 -4 -9 -9 0 -19 6 -22 13 -3 6
-4 1 -2 -13 2 -14 -2 -34 -10 -45 -8 -10 -14 -14 -14 -9 0 6 6 16 13 23 10 10
9 11 -5 6 -17 -7 -22 -18 -19 -37 0 -5 -5 -8 -12 -8 -16 0 -40 -38 -32 -50 4
-6 -1 -10 -10 -10 -9 0 -14 -4 -11 -9 3 -5 -5 -16 -19 -25 -14 -9 -25 -25 -25
-35 0 -22 -23 -44 -36 -33 -4 4 -3 0 3 -8 8 -11 9 -20 1 -30 -8 -13 -9 -12 -4
2 3 12 1 15 -10 11 -9 -3 -12 -12 -8 -25 3 -11 2 -18 -3 -15 -5 3 -14 -3 -21
-13 -8 -13 -8 -21 -1 -25 6 -5 5 -15 -5 -31 -21 -31 -20 -40 1 -23 13 11 13 8
-2 -13 -11 -15 -24 -28 -30 -28 -5 0 -3 -5 5 -10 13 -9 13 -11 0 -20 -13 -9
-13 -10 0 -10 13 0 13 -1 0 -10 -10 -6 -11 -10 -2 -10 6 0 12 -11 12 -25 0
-14 5 -25 11 -25 5 0 8 -4 4 -9 -3 -5 3 -17 12 -27 17 -17 17 -18 1 -11 -20 7
-25 -8 -5 -16 6 -3 3 -6 -7 -6 -20 -1 -20 -1 0 -17 12 -10 13 -14 4 -11 -11 3
-16 -4 -17 -25 -2 -19 2 -26 9 -22 7 4 8 3 4 -5 -4 -6 -11 -9 -16 -6 -5 3 -11
1 -15 -5 -3 -5 -1 -10 6 -10 7 0 9 -3 6 -6 -4 -4 -14 -1 -22 6 -9 7 -15 9 -14
4 3 -19 -1 -35 -9 -30 -5 3 -9 -1 -9 -9 0 -8 5 -11 10 -8 6 4 8 0 4 -10 -4
-10 -1 -17 5 -17 6 0 8 -3 5 -6 -10 -11 13 -45 25 -38 7 4 8 3 4 -4 -4 -7 -15
-12 -24 -12 -14 0 -14 -2 -3 -9 8 -5 10 -14 6 -21 -5 -9 -4 -11 3 -6 7 4 12 2
12 -3 0 -6 -5 -11 -11 -11 -5 0 -7 -5 -4 -10 4 -6 1 -17 -5 -25 -10 -12 -9
-15 4 -15 11 0 15 5 10 13 -4 6 -3 8 1 4 12 -10 15 -38 4 -31 -5 3 -9 1 -9 -5
0 -5 6 -12 13 -14 9 -4 9 -8 1 -14 -9 -6 -8 -11 2 -21 10 -10 14 -10 14 -1 0
7 3 9 6 6 4 -4 1 -13 -6 -22 -7 -8 -9 -15 -4 -15 5 0 10 -18 11 -40 2 -33 0
-38 -15 -33 -14 5 -13 2 3 -11 11 -10 13 -14 5 -10 -10 5 -8 0 4 -15 19 -20
19 -21 2 -15 -14 5 -17 3 -14 -7 3 -8 10 -13 16 -12 5 1 8 -7 5 -18 -3 -11 1
-27 9 -37 10 -12 14 -40 14 -89 -1 -43 3 -73 9 -73 7 0 7 -3 0 -8 -14 -10 -17
-32 -4 -32 5 0 8 -3 6 -7 -3 -5 1666 -8 3709 -8 3125 1 3716 3 3726 14 11 11
10 12 0 6 -11 -6 -12 -3 -3 14 7 11 14 21 17 21 3 0 2 -5 -2 -12 -4 -7 -3 -8
4 -4 9 5 9 13 2 27 -8 13 -7 19 0 19 6 0 18 7 27 15 8 8 19 12 25 9 7 -4 8 -2
4 5 -4 6 -12 8 -18 5 -7 -5 -8 -2 -4 5 5 7 14 10 20 8 7 -3 13 1 13 9 0 7 -5
10 -11 7 -6 -4 -5 1 3 10 11 14 11 17 0 17 -11 0 -11 2 1 10 12 8 12 10 -5 10
l-20 1 20 16 c15 12 16 14 3 10 -17 -6 -34 18 -18 28 13 8 0 36 -14 29 -6 -3
-3 1 6 9 14 11 15 16 5 27 -8 8 -8 11 -1 7 15 -9 24 26 12 47 -6 11 -5 16 4
16 9 0 9 3 -2 10 -13 8 -13 11 -1 22 12 11 13 10 6 -2 -5 -8 -4 -12 0 -7 12
11 14 47 2 47 -5 0 -4 7 3 15 6 8 9 19 5 25 -6 9 8 15 28 11 5 -1 6 3 2 9 -3
6 -11 7 -17 4 -7 -5 -8 -2 -4 5 5 7 15 10 23 6 13 -4 14 -3 3 10 -7 8 -9 15
-5 15 4 0 2 7 -5 15 -11 13 -10 14 5 9 14 -6 16 -4 8 12 -6 10 -9 30 -8 42 1
13 -4 26 -12 29 -8 3 -12 12 -9 20 4 9 2 11 -6 7 -8 -5 -9 -2 -5 9 5 12 1 17
-13 17 -11 0 -20 4 -20 10 0 5 8 7 18 3 11 -3 9 0 -6 11 -12 10 -20 21 -18 25
3 4 -4 17 -14 29 -23 24 -26 37 -7 26 8 -5 8 -3 -2 9 -7 9 -17 14 -22 11 -13
-8 -11 10 4 25 7 9 7 11 1 8 -7 -4 -14 3 -18 18 -4 14 -10 24 -14 24 -19 -3
-25 2 -12 11 12 8 10 10 -10 10 -20 0 -22 2 -10 10 11 7 11 10 2 10 -7 0 -10
5 -7 10 3 6 0 13 -9 16 -8 3 -12 12 -9 20 3 9 -2 14 -13 15 -11 0 -14 3 -7 6
10 3 9 8 -3 20 -8 9 -13 22 -9 31 5 13 3 13 -12 1 -11 -9 -14 -10 -9 -2 4 8 2
13 -6 13 -11 0 -10 2 0 9 11 7 10 9 -3 15 -9 3 -13 10 -10 16 3 5 1 10 -5 10
-7 0 -10 7 -7 15 4 8 1 17 -5 21 -7 4 -8 3 -4 -4 4 -7 2 -12 -3 -12 -10 0 -15
14 -12 34 1 5 -6 6 -15 2 -14 -5 -15 -4 -4 9 9 10 9 15 1 15 -6 0 -19 13 -30
30 -10 16 -21 27 -24 23 -4 -3 -7 2 -7 13 0 16 -2 17 -11 4 -9 -12 -10 -10 -6
8 5 20 3 22 -11 10 -12 -10 -14 -10 -8 -1 5 9 1 13 -11 14 -10 0 -13 3 -6 6
10 3 9 8 -2 20 -8 8 -12 19 -9 25 4 7 2 8 -5 4 -6 -4 -9 -11 -6 -16 3 -5 0
-12 -6 -16 -7 -4 -9 -3 -5 4 3 6 2 13 -3 17 -6 3 -8 12 -4 20 4 11 1 13 -11 9
-11 -4 -16 -1 -16 12 0 16 -2 17 -10 4 -8 -13 -10 -12 -10 3 0 9 -4 17 -10 17
-5 0 -8 6 -6 13 1 6 1 9 -1 5 -8 -14 -25 -8 -20 6 4 10 1 13 -9 9 -7 -3 -14 0
-14 7 0 6 -5 8 -12 4 -8 -5 -9 -2 -5 9 5 13 1 17 -18 17 -14 0 -25 5 -25 11 0
5 6 7 13 3 9 -5 9 -3 -1 7 -7 8 -16 14 -20 15 -19 2 -48 20 -60 36 -7 10 -18
16 -23 13 -5 -4 -9 -1 -9 4 0 6 -3 10 -7 10 -27 -4 -35 1 -23 16 11 13 10 14
-4 9 -9 -4 -16 -1 -16 6 0 9 -4 9 -16 -1 -15 -12 -16 -11 -10 11 6 19 5 22 -3
10 -9 -13 -12 -13 -20 -1 -5 8 -19 12 -35 9 -14 -3 -23 -1 -20 3 2 4 -5 13
-16 19 -11 6 -20 8 -20 4 0 -4 -11 3 -25 16 -14 13 -25 19 -25 13 0 -8 -8 -8
-29 0 -17 6 -27 16 -23 21 3 6 -2 5 -11 -3 -11 -9 -17 -10 -17 -2 0 6 -7 11
-16 11 -9 0 -13 -5 -9 -12 4 -7 1 -6 -7 3 -7 9 -19 14 -27 11 -9 -3 -11 0 -6
9 6 11 5 12 -5 2 -11 -10 -16 -9 -27 5 -8 9 -12 12 -9 5 4 -6 1 -15 -5 -19 -8
-5 -9 -3 -4 6 6 10 3 12 -11 7 -17 -6 -17 -6 -3 5 9 7 15 19 13 26 -1 7 0 8 3
2 2 -5 9 -10 14 -10 6 0 8 4 5 9 -9 14 5 42 16 35 6 -4 8 2 3 17 -7 24 -7 24
9 4 10 -13 15 -15 14 -5 -2 8 4 14 12 15 8 1 14 7 12 14 -4 17 38 62 49 55 5
-3 17 0 26 6 16 10 16 11 1 6 -12 -3 -15 -1 -12 9 3 8 12 11 20 8 8 -3 14 -2
13 3 -4 21 2 28 11 14 8 -12 10 -11 10 8 0 13 6 22 15 22 8 0 15 5 15 11 0 5
-4 8 -8 5 -5 -3 -9 2 -9 10 0 8 5 13 11 11 20 -7 35 26 23 48 -9 17 -8 18 5 7
14 -11 16 -7 14 32 -1 36 1 43 11 34 11 -8 12 -7 7 7 -5 13 -4 16 4 11 8 -5
10 -2 6 9 -4 8 -1 21 5 29 6 7 8 22 4 32 -6 17 -5 18 12 4 12 -10 16 -10 11
-2 -4 7 -1 24 9 38 13 20 14 28 4 40 -10 12 -9 16 9 21 12 3 19 9 16 14 -3 5
-9 7 -13 5 -3 -3 -7 4 -7 14 0 15 3 17 15 7 12 -10 13 -9 7 1 -4 7 -2 20 5 28
10 12 10 15 -1 12 -7 -2 -13 7 -15 19 -1 12 2 20 7 17 4 -3 8 -1 8 5 0 5 -5
13 -10 16 -8 5 -7 11 1 21 9 11 8 14 -2 14 -10 0 -10 3 -1 12 9 9 8 16 -5 30
-15 17 -15 18 -1 13 19 -8 33 11 17 21 -8 5 -9 3 -4 -6 5 -8 4 -11 -3 -6 -6 4
-9 13 -6 21 4 8 11 12 18 8 6 -4 5 1 -3 10 -11 14 -11 18 3 23 11 4 16 16 14
33 -2 21 1 26 17 24 19 -1 19 -1 3 11 -18 13 -26 32 -10 22 5 -3 8 9 7 25 -1
17 -8 35 -16 40 -12 7 -12 9 1 10 10 0 8 3 -5 9 l-20 9 20 1 c16 1 14 4 -10
16 -16 8 -22 12 -12 9 15 -4 16 -1 7 16 -6 11 -22 25 -36 31 -17 8 -21 14 -13
24 7 9 4 16 -11 27 -20 14 -22 39 -7 64 4 6 1 14 -5 16 -7 3 -3 6 8 6 18 1 21
7 20 39 -1 27 3 36 13 34 10 -2 12 1 5 10 -11 16 -11 38 -1 56 5 6 5 12 1 12
-4 0 1 7 12 16 18 14 18 15 -6 8 -23 -6 -23 -5 -7 8 21 16 29 50 14 60 -7 4
-7 11 1 21 7 8 12 19 11 23 -4 21 2 45 9 40 4 -2 8 9 7 25 0 16 -3 29 -7 29
-5 0 -8 11 -8 25 0 17 -4 23 -14 19 -8 -3 -21 4 -29 16 -11 16 -22 20 -39 16
-12 -3 -17 -3 -10 0 17 8 15 24 -3 24 -9 0 -12 6 -8 17 5 12 3 14 -7 8 -10 -6
-12 -4 -6 11 12 27 11 159 0 157 -5 -1 -10 7 -10 17 0 15 3 17 16 7 8 -6 5 0
-6 13 -16 19 -19 31 -14 52 6 19 5 28 -3 28 -7 0 -6 4 3 10 8 5 10 10 5 10 -6
0 -12 14 -13 32 -2 18 -6 35 -10 38 -5 3 -8 14 -9 25 -2 68 -8 95 -23 96 -8 0
-10 3 -5 5 11 4 9 65 -2 94 -11 27 -11 40 -2 34 5 -3 9 2 9 11 0 9 -4 14 -8
11 -5 -3 -10 9 -11 27 -4 67 -6 82 -14 88 -4 3 -9 24 -10 47 -1 23 -4 42 -8
42 -4 0 -7 6 -6 13 1 37 -4 68 -11 63 -4 -2 -8 4 -8 15 0 10 5 19 11 19 5 0 3
5 -5 10 -8 5 -11 10 -6 10 5 0 3 7 -4 15 -10 12 -10 15 0 15 9 0 10 3 1 13 -6
8 -8 17 -4 20 3 4 1 7 -6 7 -9 0 -11 8 -7 26 4 14 3 23 -2 20 -5 -3 -7 6 -4
21 4 20 2 24 -9 18 -12 -7 -12 -6 -1 7 10 12 10 18 1 23 -8 6 -7 10 2 16 11 7
9 9 -6 9 -17 0 -17 2 -5 10 13 8 12 10 -4 10 -15 0 -16 3 -6 15 10 12 10 15 0
15 -7 0 -10 6 -7 14 3 8 -1 17 -10 20 -12 5 -13 9 -3 21 10 12 10 15 0 15 -7
0 -10 7 -6 16 6 15 4 15 -10 3 -16 -13 -16 -12 -6 7 7 12 7 25 2 30 -5 5 -10
26 -12 46 -1 20 -5 35 -9 32 -4 -2 -9 3 -13 11 -3 8 0 15 7 15 7 0 4 5 -6 11
-15 9 -16 13 -5 27 10 12 10 14 1 8 -9 -5 -13 0 -13 13 0 12 -6 21 -12 21 -9
0 -8 4 2 10 12 8 12 10 1 10 -8 0 -11 7 -8 20 3 11 0 18 -6 17 -6 -1 -11 7
-12 18 0 11 -6 19 -13 17 -8 -1 -11 2 -7 8 3 6 11 8 16 5 5 -4 9 -1 9 4 0 6
-7 11 -15 11 -8 0 -14 3 -14 8 1 4 1 23 0 42 -1 27 -4 31 -11 20 -8 -13 -10
-13 -10 2 0 9 -3 25 -6 35 -5 15 -4 15 5 3 6 -8 11 -11 11 -7 0 5 -8 19 -18
31 -12 16 -17 40 -17 84 0 34 -4 62 -8 62 -5 0 -5 5 -1 12 5 7 2 9 -8 6 -8 -4
-15 -1 -15 7 0 7 6 11 12 9 6 -3 12 2 12 10 0 8 -5 12 -10 9 -6 -4 -8 0 -4 10
4 10 1 17 -6 17 -8 0 -6 4 3 10 13 8 12 10 -3 10 -10 0 -15 4 -12 10 3 6 1 10
-4 10 -6 0 -11 6 -11 14 0 8 -9 17 -19 21 -11 3 -23 15 -27 27 -5 17 -8 18
-16 7 -7 -10 -8 -8 -5 8 3 12 2 22 -2 21 -24 -3 -33 4 -28 22 4 17 2 18 -16 8
-12 -6 -19 -7 -14 -3 4 5 -5 17 -20 27 -16 10 -23 18 -16 18 6 0 15 -4 18 -10
3 -5 11 -10 17 -10 6 0 -1 9 -16 21 -14 11 -30 18 -36 14 -6 -4 -7 1 -3 11 4
12 3 15 -5 10 -8 -5 -10 -1 -5 10 4 12 3 15 -5 10 -8 -5 -10 -1 -5 10 5 13 2
16 -9 11 -12 -4 -14 -1 -11 14 4 13 0 19 -10 19 -9 0 -19 5 -23 12 -4 7 -3 8
4 4 7 -4 12 -3 12 2 0 6 -7 13 -16 16 -8 3 -12 11 -8 17 5 8 3 9 -6 4 -10 -6
-12 -4 -7 8 3 10 2 17 -2 17 -5 0 -12 -6 -14 -12 -5 -13 -11 18 -7 37 1 6 -1
7 -5 4 -7 -8 -94 73 -88 84 2 4 -5 7 -16 7 -12 0 -21 5 -21 11 0 8 -5 8 -15
-1 -16 -14 -21 0 -5 16 6 6 3 10 -9 10 -11 0 -17 -5 -13 -11 3 -5 -2 -4 -11 3
-9 8 -21 11 -27 7 -5 -3 -10 -1 -10 5 0 7 -7 10 -14 7 -10 -4 -13 -1 -9 9 4
10 0 12 -11 8 -10 -4 -24 2 -35 15 -13 14 -22 18 -26 11 -5 -8 -11 -8 -19 -1
-7 6 -17 7 -21 3 -5 -4 -5 -2 -1 5 4 7 -2 17 -14 23 -11 6 -20 8 -20 4 0 -3
-9 4 -21 17 -11 13 -18 18 -14 12 3 -7 1 -13 -4 -13 -6 0 -11 7 -11 16 0 8 -4
12 -10 9 -5 -3 -10 -1 -10 4 0 6 -9 11 -20 11 -11 0 -20 5 -20 10 0 6 -9 10
-21 10 -13 0 -18 4 -13 13 5 9 4 9 -6 0 -10 -9 -16 -8 -27 3 -8 8 -20 11 -26
7 -7 -4 -6 1 2 10 12 15 12 17 -4 11 -14 -6 -16 -4 -10 7 6 11 5 12 -6 2 -7
-7 -17 -13 -21 -13 -4 0 -7 6 -6 13 2 6 -3 11 -9 9 -7 -1 -13 6 -13 15 0 15
-2 16 -10 3 -8 -13 -10 -13 -10 2 0 12 -5 15 -17 11 -11 -4 -14 -3 -9 5 5 8 2
10 -8 6 -9 -3 -16 -1 -16 5 0 6 -7 11 -16 11 -8 0 -12 5 -8 11 4 7 -1 7 -16
-1 -15 -8 -20 -8 -16 -1 4 6 2 11 -3 11 -6 0 -11 -5 -11 -12 0 -6 -3 -8 -6 -5
-4 4 -2 12 4 20 8 10 5 13 -15 15 -31 2 -55 20 -46 35 3 5 1 7 -5 3 -6 -3 -16
-1 -24 6 -7 7 -20 14 -28 16 -19 4 -31 23 -23 36 3 5 1 6 -5 2 -6 -4 -9 -14
-6 -24 5 -16 5 -16 -6 0 -6 10 -17 15 -27 11 -11 -4 -14 -3 -9 5 4 7 1 12 -9
12 -10 0 -13 5 -9 13 5 7 0 6 -11 -3 -15 -12 -17 -12 -10 -1 6 11 2 13 -19 9
-21 -4 -24 -3 -15 8 12 14 3 19 -28 15 -7 -1 -13 4 -13 11 0 9 -3 9 -10 -2 -6
-9 -10 -11 -10 -3 0 7 -7 10 -15 7 -9 -4 -15 0 -15 9 0 21 -17 31 -26 16 -4
-8 -3 -9 4 -5 7 4 12 2 12 -3 0 -16 -19 -13 -37 4 -8 8 -20 12 -26 9 -8 -5 -8
-2 1 7 6 7 12 18 12 23 0 6 -4 5 -9 -2 -6 -11 -11 -10 -25 3 -9 10 -14 20 -11
23 3 4 10 0 15 -8 6 -9 10 -10 10 -3 0 6 -8 18 -18 25 -23 17 -43 48 -21 33
12 -8 12 -7 -1 5 -8 9 -16 22 -18 30 -2 8 -8 18 -14 21 -7 4 -6 9 1 13 6 4 9
12 5 17 -4 7 -10 6 -18 0 -8 -7 -12 -4 -13 10 -1 12 3 17 9 13 7 -5 8 -2 4 5
-5 7 -15 10 -25 7 -9 -4 -5 3 9 13 l25 20 -28 -3 c-22 -3 -25 -1 -16 10 8 10
8 14 0 14 -6 0 -11 5 -11 11 0 5 5 7 11 3 8 -5 8 -1 0 14 -6 12 -17 24 -24 28
-7 5 -6 0 3 -12 14 -18 14 -18 -3 -5 -14 11 -15 16 -5 29 7 9 8 13 2 9 -6 -3
-19 8 -29 25 -10 17 -14 28 -8 25 5 -3 15 -2 23 4 13 7 12 9 -2 9 -10 0 -15 7
-13 18 2 9 4 21 4 25 1 5 7 5 14 1 7 -5 7 -2 -2 10 -8 9 -10 16 -5 15 25 -4
26 3 4 17 -15 9 -18 13 -6 9 17 -5 17 -4 5 12 -9 11 -10 14 -1 9 7 -4 12 -2
12 8 0 8 -6 17 -12 20 -7 4 -2 4 12 2 24 -5 24 -4 6 9 -19 14 -18 15 12 21 17
4 29 10 26 15 -3 5 -10 6 -16 3 -7 -4 -8 -2 -4 5 4 6 12 9 17 6 8 -5 13 14 11
37 -1 3 6 12 16 20 15 12 16 11 3 -4 -7 -10 -9 -18 -3 -18 14 0 23 28 11 36
-6 3 -3 11 7 19 16 11 16 13 -2 23 -14 9 -15 12 -4 13 8 1 19 1 24 0 5 -1 1
10 -9 25 -9 14 -13 24 -7 20 5 -3 12 3 15 14 3 11 1 18 -3 15 -4 -3 -6 4 -3
15 3 11 10 17 17 13 6 -3 6 0 -1 8 -18 19 -16 39 5 40 10 0 12 3 5 6 -9 3 -10
10 -3 22 5 10 6 21 3 25 -3 3 -1 6 6 6 7 0 9 5 6 10 -4 6 -12 8 -18 4 -7 -3
-3 2 7 10 11 9 16 16 10 16 -5 0 -2 5 6 10 13 8 13 10 1 10 -11 0 -9 4 5 15
16 13 16 14 2 9 -10 -3 -18 -1 -18 5 0 6 5 11 10 11 6 0 10 20 10 44 0 25 4
48 10 51 6 4 5 13 -2 25 -7 10 -17 16 -23 12 -5 -3 -5 1 2 9 7 9 8 20 3 29 -7
12 -11 12 -26 -1 -16 -12 -17 -12 -12 1 4 11 -1 16 -15 18 -18 1 -19 -1 -7 -9
13 -9 13 -10 0 -6 -8 2 -14 10 -13 16 2 6 -1 11 -6 11 -5 0 -9 19 -9 42 -1 22
-7 45 -14 49 -7 5 -8 9 -2 9 6 0 11 7 11 15 0 8 -3 12 -7 10 -4 -2 -7 10 -7
28 0 81 -7 126 -18 117 -7 -6 -10 5 -10 36 0 24 -4 44 -9 44 -5 0 -3 6 3 13 6
8 7 18 3 22 -4 5 -1 5 6 1 7 -4 9 -12 6 -18 -4 -7 -2 -8 4 -4 7 4 12 17 12 29
0 20 0 20 16 1 13 -16 15 -16 10 -1 -5 15 3 21 25 19 3 -1 6 6 6 14 0 8 -4 14
-8 14 -5 0 -5 10 0 23 6 16 3 30 -11 49 -11 16 -17 32 -14 37 3 5 -1 11 -8 14
-8 3 -20 16 -26 29 -11 22 -10 22 10 -2 l21 -25 -12 25 c-7 13 -18 30 -25 38
-7 7 -10 20 -7 29 5 12 3 14 -8 8 -12 -8 -12 -6 0 8 8 11 9 17 3 17 -6 0 -9 7
-6 15 4 9 0 15 -10 15 -9 0 -16 5 -16 11 0 5 5 7 11 3 8 -4 8 0 0 15 -7 11
-15 21 -20 21 -4 0 -7 15 -6 34 0 26 -2 32 -11 25 -8 -6 -14 -4 -18 6 -3 9 -2
13 3 10 5 -3 13 0 17 6 4 8 3 9 -4 5 -7 -4 -12 -2 -12 4 0 6 -4 8 -10 5 -5 -3
-10 3 -10 14 0 12 -3 21 -7 21 -5 0 -16 14 -25 30 -9 17 -23 30 -31 30 -8 0
-20 14 -27 30 -7 17 -18 30 -26 30 -8 0 -11 6 -7 17 5 12 3 14 -7 8 -10 -6
-12 -4 -7 8 3 9 1 19 -5 23 -7 4 -8 3 -4 -4 4 -7 2 -12 -3 -12 -6 0 -11 7 -11
16 0 10 -6 14 -14 11 -10 -4 -14 0 -11 14 2 10 0 19 -6 19 -5 0 -9 -6 -9 -12
-1 -7 -6 -3 -13 10 -7 12 -16 19 -20 16 -4 -4 -7 0 -7 9 0 11 -8 17 -22 17
-19 0 -20 2 -8 10 13 8 12 10 -2 10 -10 0 -18 5 -18 10 0 6 -7 10 -16 10 -8 0
-12 4 -9 10 4 6 -1 7 -11 3 -14 -5 -16 -3 -11 12 6 14 5 15 -5 7 -20 -16 -32
-13 -46 11 -10 17 -12 18 -7 3 4 -15 3 -17 -8 -8 -8 7 -18 8 -22 4 -5 -4 -5
-1 0 7 6 11 3 13 -14 8 -17 -4 -20 -2 -12 7 7 9 4 12 -12 13 -12 1 -23 7 -25
13 -3 8 -8 7 -18 -1 -11 -9 -14 -8 -14 2 0 12 -2 12 -9 0 -7 -11 -10 -9 -16 9
-4 12 -10 18 -14 12 -12 -19 -66 -19 -56 1 4 6 -1 3 -9 -7 -16 -20 -16 -20
-16 0 0 17 -3 16 -21 -6 -11 -14 -18 -19 -14 -13 3 7 1 21 -5 30 -11 17 -11
17 -6 1z m-509 -128 c-3 -5 -12 -10 -18 -10 -7 0 -6 4 3 10 19 12 23 12 15 0z
m1150 -250 c3 -5 1 -10 -4 -10 -6 0 -11 5 -11 10 0 6 2 10 4 10 3 0 8 -4 11
-10z m-1510 -1479 c3 -5 2 -12 -3 -15 -5 -3 -9 1 -9 9 0 17 3 19 12 6z m92
-316 c0 -8 -4 -12 -9 -9 -5 3 -6 10 -3 15 9 13 12 11 12 -6z m-604 -580 c-3
-9 -8 -14 -10 -11 -3 3 -2 9 2 15 9 16 15 13 8 -4z m-153 -105 c0 -5 -5 -10
-11 -10 -5 0 -7 5 -4 10 3 6 8 10 11 10 2 0 4 -4 4 -10z m4505 -3420 c3 -6 -1
-7 -9 -4 -18 7 -21 14 -7 14 6 0 13 -4 16 -10z m19 -628 c3 -5 -1 -9 -9 -9 -8
0 -12 4 -9 9 3 4 7 8 9 8 2 0 6 -4 9 -8z m-6407 -750 c-10 -10 -14 -22 -10
-27 5 -4 2 -5 -5 -1 -11 6 -10 12 4 27 9 10 19 19 22 19 3 0 -2 -8 -11 -18z
m-217 -296 c-7 -7 -13 -7 -20 0 -6 6 -3 10 10 10 13 0 16 -4 10 -10z"/>
<path d="M6570 6211 c0 -6 4 -13 10 -16 6 -3 7 1 4 9 -7 18 -14 21 -14 7z"/>
<path d="M7730 3491 c0 -6 4 -13 10 -16 6 -3 7 1 4 9 -7 18 -14 21 -14 7z"/>
<path d="M1975 1960 c-3 -5 -2 -10 4 -10 5 0 13 5 16 10 3 6 2 10 -4 10 -5 0
-13 -4 -16 -10z"/>
<path d="M7507 1902 c-15 -16 -15 -19 -2 -19 8 0 13 3 10 5 -3 3 0 11 6 19 17
20 5 16 -14 -5z"/>
<path d="M994 206 c1 -8 5 -18 8 -22 4 -3 5 1 4 10 -1 8 -5 18 -8 22 -4 3 -5
-1 -4 -10z"/>
</g>
</svg>
